<svg id="Capa_1" enable-background="new 0 0 512 512" height="512" viewBox="0 0 512 512" width="512" xmlns="http://www.w3.org/2000/svg"><g><path d="m512 256c0 21.55-2.663 42.478-7.677 62.473-.513 2.048-4 2.5-4.562 4.527-4.126 14.872-8.983 26.515-15.594 40.167-.77 1.591.815 7.443.012 9.015-32.404 63.513-90.545 111.704-160.677 130.825-21.505 5.863-41.221 1.576-64.585 1.576-.969 0-4.854 7.411-5.821 7.401-42.762-.475-83.006-11.435-118.284-30.429-1.571-.846-4.261-7.927-5.812-8.805-21.905-12.392-35.886-23.031-53.167-41.083-1.191-1.244-7.156-1.168-8.322-2.436-21.637-23.531-38.925-51.124-50.588-81.504-.745-1.94 1.942-7.93 1.243-9.893-4.275-12.01-7.044-22.573-9.5-35.333-.283-1.47-4.598-.765-4.855-2.243-2.505-14.377-3.811-29.165-3.811-44.258 0-141.385 114.615-256 256-256s256 114.615 256 256z" fill="#51489a"/><path d="m334.935 370.68c-2.448 21.865-11.498 35.88-20.25 49.433-4.658 7.215-9.059 14.029-12.881 22.536-8.547 19.021-11.473 41.367-8.768 66.692-12.092 1.752-24.458 2.659-37.036 2.659-.969 0-1.938-.006-2.905-.017-3.174-31.823.907-60.548 12.222-85.729 5.063-11.268 10.748-20.072 15.765-27.84 7.372-11.418 12.699-19.667 14.101-32.186 1.947-17.393-4.402-36.439-18.874-56.612-6.438-8.976-4.382-21.471 4.593-27.909 8.975-6.436 21.471-4.383 27.909 4.593 20.417 28.461 29.206 56.85 26.124 84.38zm-107.739-89.344c-1.509-.581-3.115-.986-4.793-1.189-10.965-1.328-20.932 6.484-22.259 17.45-4.689 38.722-17.389 68.59-37.747 88.778-6.622 6.567-13.176 11.347-20.114 16.408-13.035 9.506-26.514 19.336-36.65 38.864-.027.053-.055.105-.082.158-4.69 9.076-1.771 20.296 6.678 26.041 7.268 4.942 14.804 9.52 22.582 13.708.892-7.902 3.001-15.075 6.325-21.478 5.803-11.181 13.737-16.966 24.718-24.976 7.471-5.448 15.938-11.624 24.71-20.322 26.909-26.684 43.493-64.491 49.29-112.373 1.124-9.286-4.308-17.856-12.658-21.069z" fill="#a3003c"/><path d="m504.323 318.473c-4.022 16.039-9.558 31.477-16.445 46.154-.328-.069-.654-.146-.977-.231-6.878-1.817-12.564-7.255-14.348-14.657-4.55-18.873-12.124-31.584-22.51-37.781-10.849-6.468-22.911-4.65-41.7-1.144-19.077 3.562-40.704 7.598-64.246-1.347-.734-.279-1.463-.568-2.188-.868-6.996-2.896-14.818-2.904-21.762.115-11.657 5.069-24.03 8.799-36.927 10.995-9.494 1.617-17.456 8.151-20.805 17.18-7.682 20.714-12.788 40.629-14.967 58.824-3.78 31.565 1.408 55.704 14.235 66.227 12.373 10.148 38.975 14.323 54.729 4.494 9.813-6.122 13.06-16.888 17.953-35.391 5.797-21.917 13.011-49.195 40.733-69.716 10.005-7.405 45.021-30.263 75.551-13.442 12.786 7.044 22.229 20.112 26.667 36.862-11.013 18.891-24.375 36.244-39.687 51.658-.832-3.209-.877-6.67.029-10.104 5.997-22.732.188-39.801-6.313-43.381-6.437-3.546-21.857 2.718-32.449 10.558-16.44 12.169-20.806 28.678-25.861 47.793-5.095 19.264-10.705 38.814-30.584 55.765-8.426 7.185-21.159 11.218-32.157 13.594-9.988 2.157-33.512-.179-34.964-.458-15.158-2.915-29.049-9.128-39.018-17.306-35.757-29.332-39.26-92.397-12.935-165.853 1.447-4.039-.897-8.447-5.069-9.447-.044-.01-.088-.021-.132-.032-3.068-.738-6.25.595-7.869 3.304-6.226 10.423-13.28 20.18-21.146 29.235-17.479 20.123-34.734 31.86-48.6 41.292-15.855 10.786-24.347 16.939-29.013 28.229-5.332 12.9-3.949 32.997 1.372 48.726-2.33-1.794-4.656-3.187-6.709-4.687-12.078-8.831-20.337-14.35-38.703-34.398 1.015-6.212 4.715-19.214 7.073-24.919 9.456-22.877 25.983-34.119 43.482-46.022 13.188-8.971 26.824-18.247 40.897-34.449 3.383-3.894 6.583-7.959 9.598-12.19 4.064-5.702 2.657-13.575-3.129-17.519l-.208-.142c-5.514-3.771-13.061-2.372-16.937 3.069-9.877 13.867-21.694 22.95-35.577 27.432-17.207 5.554-30.979 1.724-42.046-1.352-9.321-2.593-15.479-4.306-24.111-1.598-9.704 3.043-22.801 16.17-29.632 26.187-13.107-36.482-12.637-45.411-13.107-47.478 8.34-6.84 21.006-13.817 30.777-16.881 19.918-6.245 35.452-1.927 46.794 1.228 8.961 2.491 13.516 3.61 19.042 1.824 3.529-1.139 6.946-3.374 10.215-6.641 10.558-10.549 12.249-26.971 4.933-39.98-13.1-23.294-20.572-28.174-20.572-56.802 0-88.983 72.188-182.989 161.195-183.002l.426.001c.1 0 .201 0 .301.001 88.885.498 160.078 94.114 160.078 183 0 34.075-10.586 43.674-28.648 69.695-6.185 8.91 1.652 20.848 12.314 18.858.112-.021.224-.042.337-.063 21.168-3.952 45.159-8.429 69.535 6.115 14.658 8.746 25.97 22.445 33.785 40.866z" fill="#ff3c7d"/><path d="m300.538 347.383c-1.81-8.084 1.092-15.616 6.481-16.822 5.389-1.207 11.226 4.369 13.036 12.453s-1.092 15.616-6.481 16.822c-5.39 1.206-11.226-4.369-13.036-12.453zm6.125 51.972c5.358 1.338 11.329-4.093 13.336-12.131s-.71-15.638-6.068-16.976-11.329 4.093-13.336 12.131.71 15.638 6.068 16.976zm-19.934 39.954c5.358 1.338 11.329-4.093 13.336-12.131s-.71-15.638-6.068-16.976-11.329 4.093-13.336 12.131.71 15.638 6.068 16.976zm-164.258 4.887c4.116 3.683 11.93 1.664 17.455-4.509 5.524-6.173 6.667-14.163 2.551-17.846s-11.93-1.664-17.455 4.509c-5.524 6.173-6.666 14.163-2.551 17.846zm30-26.036c4.116 3.683 11.93 1.664 17.455-4.509 5.524-6.173 6.667-14.163 2.551-17.846s-11.93-1.664-17.455 4.509-6.666 14.163-2.551 17.846zm30-23.964c4.116 3.683 11.93 1.664 17.455-4.509 5.524-6.173 6.667-14.163 2.551-17.846s-11.93-1.664-17.455 4.509-6.666 14.163-2.551 17.846z" fill="#ffa2c1"/><path d="m305.418 346.291c-.905-4.042.546-7.808 3.241-8.411s5.613 2.184 6.518 6.226-.546 7.808-3.241 8.411-5.613-2.184-6.518-6.226zm3.062 45.787c2.679.669 5.664-2.047 6.668-6.065 1.003-4.019-.355-7.819-3.034-8.488s-5.665 2.047-6.668 6.065c-1.004 4.019.355 7.819 3.034 8.488zm-19.934 39.954c2.679.669 5.665-2.047 6.668-6.065 1.003-4.019-.355-7.819-3.034-8.488s-5.664 2.047-6.668 6.065.355 7.819 3.034 8.488zm-161.073 6.575c2.058 1.841 5.965.832 8.727-2.255s3.333-7.082 1.276-8.923c-2.058-1.841-5.965-.832-8.727 2.255-2.763 3.086-3.334 7.081-1.276 8.923zm30-26.036c2.058 1.841 5.965.832 8.727-2.255s3.333-7.082 1.276-8.923c-2.058-1.841-5.965-.832-8.727 2.255-2.763 3.086-3.334 7.082-1.276 8.923zm30-23.964c2.058 1.841 5.965.832 8.727-2.255s3.333-7.082 1.276-8.923c-2.058-1.841-5.965-.832-8.727 2.255-2.763 3.086-3.334 7.081-1.276 8.923z" fill="#920035"/><path d="m329.298 239.14c-100.904 0-182.702-81.798-182.702-182.702 0-1.12.01-2.237.031-3.352 28.925-32.023 67.706-53.322 110.296-53.084 88.884.498 160.077 94.114 160.077 183 0 16.883-2.599 27.758-7.418 37.599-24.233 11.874-51.48 18.539-80.284 18.539z" fill="#ff5e93"/><path d="m329.091 71.79c-6.566 10.583-17.027-5.236-35.087-16.441s-36.879-13.553-30.313-24.136 26.529-10.079 44.589 1.126c18.059 11.206 27.377 28.869 20.811 39.451zm38.872 11.875c-6.873-8.585-17.037-11.868-22.703-7.332s-4.686 15.172 2.187 23.757 17.037 11.868 22.703 7.332c5.665-4.536 4.686-15.172-2.187-23.757z" fill="#ffa2c1"/><path d="m347.736 140c0 14.86-12.046 26.906-26.906 26.906s-26.906-12.046-26.906-26.906c0-14.859 12.046-26.906 26.906-26.906s26.906 12.047 26.906 26.906zm-156.566-26.906c-14.86 0-26.906 12.046-26.906 26.906s12.046 26.906 26.906 26.906 26.905-12.046 26.905-26.906c0-14.859-12.046-26.906-26.905-26.906z" fill="#ffa2c1"/><path d="m329.799 140c0 4.953-4.015 8.969-8.969 8.969-4.953 0-8.969-4.016-8.969-8.969s4.015-8.969 8.969-8.969 8.969 4.016 8.969 8.969zm-138.629-8.969c-4.953 0-8.969 4.016-8.969 8.969s4.015 8.969 8.969 8.969 8.969-4.016 8.969-8.969-4.016-8.969-8.969-8.969z" fill="#1c314e"/><path d="m399.573 192c0 12.426-7.052 22.5-15.75 22.5s-15.75-10.074-15.75-22.5 7.052-22.5 15.75-22.5 15.75 10.074 15.75 22.5zm-60.185-3.75c-5.509 0-9.975 6.38-9.975 14.25s4.466 14.25 9.975 14.25 9.975-6.38 9.975-14.25-4.466-14.25-9.975-14.25zm-157.187-135.972c-5.509 0-9.975 6.38-9.975 14.25s4.466 14.25 9.975 14.25 9.975-6.38 9.975-14.25-4.466-14.25-9.975-14.25z" fill="#e20a62"/><path d="m74.842 266.358c-7.447-3.63-10.54-12.61-6.91-20.056s12.61-10.54 20.056-6.91 10.54 12.61 6.91 20.056-12.61 10.54-20.056 6.91zm-7.36-64.775c6.05-12.411.894-27.377-11.517-33.427s-27.377-.894-33.427 11.517-.894 27.377 11.517 33.427 27.377.894 33.427-11.517zm343.928-63.668c-7.274 3.964-9.957 13.075-5.993 20.349s13.075 9.957 20.349 5.993 9.957-13.075 5.993-20.349-13.074-9.957-20.349-5.993zm-11.196 63.045c-12.124 6.607-16.596 21.791-9.988 33.915s21.791 16.596 33.915 9.988 16.596-21.791 9.988-33.915c-6.607-12.123-21.791-16.595-33.915-9.988z" fill="#40c1fa"/><path d="m400.919 224.182c-4.127-7.573-3.931-16.339-.249-23.464 12.046-6.251 26.934-1.741 33.458 10.231 4.127 7.572 3.931 16.339.249 23.463-12.045 6.252-26.933 1.741-33.458-10.23zm32.175-69.279c.941-3.572.572-7.496-1.335-10.995-3.371-6.186-10.463-9.051-16.983-7.333-.941 3.572-.572 7.496 1.335 10.995 3.371 6.186 10.463 9.052 16.983 7.333zm-345.106 84.489c-3.362-1.639-7.036-1.907-10.389-1.023-1.79 6.783 1.392 14.105 7.937 17.296 3.362 1.639 7.036 1.907 10.389 1.023 1.79-6.783-1.393-14.106-7.937-17.296zm-20.782-37.26c.094-.182.186-.365.276-.55 6.05-12.411.894-27.376-11.517-33.427-7.387-3.601-15.678-3.232-22.457.273-.094.182-.186.365-.277.549-6.05 12.411-.894 27.377 11.517 33.427 7.387 3.603 15.679 3.234 22.458-.272z" fill="#93dcfc"/><path d="m161.5 192c0 12.426-7.052 22.5-15.75 22.5s-15.75-10.074-15.75-22.5 7.052-22.5 15.75-22.5 15.75 10.074 15.75 22.5zm20.701 26.75c-5.509 0-9.975 6.38-9.975 14.25s4.466 14.25 9.975 14.25 9.975-6.38 9.975-14.25-4.466-14.25-9.975-14.25zm83.906 67.866c5.475 0 10.625-2.134 14.5-6.009 2.929-2.93 2.929-7.678 0-10.607-2.929-2.928-7.678-2.928-10.606 0-1.042 1.042-2.424 1.616-3.893 1.616s-2.851-.574-3.893-1.616c-2.929-2.928-7.678-2.928-10.606 0-2.929 2.93-2.929 7.678 0 10.607 3.873 3.875 9.023 6.009 14.498 6.009z" fill="#a3003c"/><path d="m476.339 436.503c-2.818 10.68-13.767 17.047-24.44 14.237-10.68-2.817-17.055-13.76-14.237-24.44 5.997-22.732.188-39.801-6.313-43.381-6.437-3.546-21.857 2.718-32.449 10.558-16.44 12.169-20.806 28.678-25.861 47.793-2.609 9.866-5.385 20.358-10.126 30.241-6.665 13.892-25.817 15.451-34.551 2.757-4.072-5.918-4.658-13.559-1.531-20.026 2.852-5.897 4.967-13.481 7.538-23.199 5.797-21.917 13.011-49.195 40.733-69.716 10.005-7.405 45.021-30.263 75.551-13.442 13.026 7.177 22.583 20.604 26.912 37.81 3.887 15.456 3.464 33.026-1.226 50.808zm15.261-128.593c-3.101-.82-6.445-.903-9.782-.099-10.739 2.589-17.345 13.393-14.756 24.13 3.836 15.911 9.561 29.354 17.117 40.241 8.656-16.967 15.476-35.027 20.196-53.918-2.601-5.182-7.312-8.91-12.775-10.354z" fill="#ff5e93"/><path d="m359.484 448.17c-2.626 7.857-9.001 12.808-14.239 11.057s-7.356-9.539-4.73-17.396 9.001-12.808 14.239-11.057 7.356 9.538 4.73 17.396zm11.092-60.861c-5.247-1.722-11.595 3.263-14.179 11.134-2.583 7.871-.423 15.648 4.824 17.37s11.595-3.263 14.179-11.134.423-15.647-4.824-17.37zm40.9-22.625c-2.425-4.962-10.425-6.035-17.868-2.397s-11.51 10.61-9.084 15.572c2.425 4.962 10.425 6.035 17.868 2.397 7.442-3.639 11.51-10.61 9.084-15.572zm42.316 7.968c2.559-4.894-1.317-11.974-8.658-15.813s-15.367-2.984-17.926 1.91 1.317 11.974 8.658 15.813 15.367 2.984 17.926-1.91zm9.056 45.653c5.453-.876 8.808-8.218 7.493-16.397s-6.801-14.099-12.254-13.223-8.808 8.217-7.493 16.397c1.315 8.179 6.801 14.099 12.254 13.223zm36.913-83.871c-1.75 5.441-3.676 10.804-5.773 16.08-.536.238-1.1.408-1.689.503-5.453.876-10.939-5.044-12.254-13.223s2.04-15.521 7.493-16.397c5.411-.87 10.856 4.954 12.223 13.037zm-21.546-28.462c2.958-4.664-.316-12.042-7.312-16.478-6.996-4.437-15.065-4.252-18.023.412s.316 12.042 7.312 16.478c6.996 4.437 15.065 4.252 18.023-.412z" fill="#ffa2c1"/><path d="m484.982 337c-.657-4.09 1.02-7.76 3.746-8.198s5.469 2.522 6.127 6.612-1.02 7.76-3.746 8.198-5.47-2.522-6.127-6.612zm-132.605 100.887c-2.619-.875-5.806 1.6-7.119 5.529s-.254 7.823 2.365 8.698 5.806-1.6 7.119-5.529.254-7.823-2.365-8.698zm18.272-34.766c-1.292 3.936-4.466 6.428-7.089 5.567s-3.704-4.75-2.412-8.685c1.292-3.936 4.466-6.428 7.089-5.567s3.704 4.749 2.412 8.685zm29.547-27.358c-3.721 1.819-7.721 1.283-8.934-1.198s.821-5.967 4.542-7.786 7.721-1.283 8.934 1.198-.821 5.967-4.542 7.786zm37.987-5.631c-3.671-1.92-5.609-5.459-4.329-7.906s5.293-2.875 8.963-.955c3.671 1.92 5.609 5.459 4.329 7.906s-5.293 2.874-8.963.955zm17.348 34.156c-.657-4.09 1.02-7.76 3.746-8.198s5.47 2.522 6.127 6.612-1.02 7.76-3.746 8.198-5.469-2.522-6.127-6.612zm16.35-102.332c1.479-2.332-.158-6.021-3.656-8.239s-7.533-2.126-9.012.206.158 6.021 3.656 8.239c3.499 2.218 7.533 2.126 9.012-.206z" fill="#920035"/></g></svg>